# xmcd
#
# Track frame offsets:
# 150
# 16705
# 32095
# 48240
# 63500
# 83627
# 99567
# 112935
# 126042
# 141515
# 155197
# 172335
# 184335
# 197217
#
# Disc length: 2745 seconds
#
#
# Revision: 0
# Processed by: cddbd v1.5.2PL0 Copyright (c) Steve Scherf et al.
# Submitted via: FreeRIP 2.96 
#
DISCID=c40ab70e
DTITLE=Intocable - Contigo
DYEAR=1900
DGENRE=Country
TTITLE0=El amigo que se fue
TTITLE1=Vuelvo a creer en el amor
TTITLE2=Un desengaño
TTITLE3=Constumbre
TTITLE4=Fuerte no soy
TTITLE5=Contigo he fallado
TTITLE6=Soñador eterno
TTITLE7=Hoy duele
TTITLE8=Contigo
TTITLE9=Estoy enamorado
TTITLE10=Es tan bello
TTITLE11=Ya estoy cansado
TTITLE12=Te quiero
TTITLE13=Agredecimiento
EXTD=
EXTT0=
EXTT1=
EXTT2=
EXTT3=
EXTT4=
EXTT5=
EXTT6=
EXTT7=
EXTT8=
EXTT9=
EXTT10=
EXTT11=
EXTT12=
EXTT13=
PLAYORDER=
